<svg width="252" height="239" viewBox="0 0 252 239" fill="none" xmlns="http://www.w3.org/2000/svg">
<path d="M235.6 13.7853C235.6 11.9186 236.272 10.368 237.615 9.13345C238.958 7.88902 240.637 7.2668 242.652 7.2668C244.558 7.2668 246.173 7.83469 247.496 8.97049C248.82 10.1063 249.481 11.4939 249.481 13.1334C249.481 14.3186 249.155 15.4593 248.504 16.5556C247.852 17.6519 246.627 19.1285 244.83 20.9852L239.422 26.5704V26.6296H249.837V29H235.733V27.163L243.259 19.2371C244.691 17.726 245.639 16.5803 246.104 15.8001C246.578 15.0198 246.815 14.1853 246.815 13.2964C246.815 12.2692 246.4 11.3952 245.57 10.6742C244.751 9.9532 243.753 9.59271 242.578 9.59271C241.323 9.59271 240.277 9.99271 239.437 10.7927C238.598 11.5927 238.178 12.5902 238.178 13.7853V13.8001H235.6V13.7853Z" fill="#0F0F0F"/>
<path d="M3.5 239V29L108.252 222.472L213.5 29V239" stroke="#0F0F0F" stroke-width="6"/>
</svg>
